HIERARCHY
ROOT Hips
{
  OFFSET 0.00 0.00 0.00
  CHANNELS 6 Xposition Yposition Zposition Zrotation Xrotation Yrotation
  JOINT Spine
  {
    OFFSET 0.00 12.00 0.00
    CHANNELS 3 Zrotation Xrotation Yrotation
    JOINT Chest
    {
      OFFSET 0.00 14.00 0.00
      CHANNELS 3 Zrotation Xrotation Yrotation
      JOINT Neck
      {
        OFFSET 0.00 18.00 0.00
        CHANNELS 3 Zrotation Xrotation Yrotation
        JOINT Head
        {
          OFFSET 0.00 8.00 0.00
          CHANNELS 3 Zrotation Xrotation Yrotation
          End Site
          {
            OFFSET 0.00 10.00 0.00
          }
        }
      }
      JOINT LeftUpperArm
      {
        OFFSET 8.00 14.00 0.00
        CHANNELS 3 Zrotation Xrotation Yrotation
        JOINT LeftForearm
        {
          OFFSET 0.00 -26.00 0.00
          CHANNELS 3 Zrotation Xrotation Yrotation
          JOINT LeftHand
          {
            OFFSET 0.00 -24.00 0.00
            CHANNELS 3 Zrotation Xrotation Yrotation
            End Site
            {
              OFFSET 0.00 -8.00 0.00
            }
          }
        }
      }
      JOINT RightUpperArm
      {
        OFFSET -8.00 14.00 0.00
        CHANNELS 3 Zrotation Xrotation Yrotation
        JOINT RightForearm
        {
          OFFSET 0.00 -26.00 0.00
          CHANNELS 3 Zrotation Xrotation Yrotation
          JOINT RightHand
          {
            OFFSET 0.00 -24.00 0.00
            CHANNELS 3 Zrotation Xrotation Yrotation
            End Site
            {
              OFFSET 0.00 -8.00 0.00
            }
          }
        }
      }
    }
  }
  JOINT LeftThigh
  {
    OFFSET 9.00 0.00 0.00
    CHANNELS 3 Zrotation Xrotation Yrotation
    JOINT LeftShin
    {
      OFFSET 0.00 -42.00 0.00
      CHANNELS 3 Zrotation Xrotation Yrotation
      JOINT LeftFoot
      {
        OFFSET 0.00 -40.00 0.00
        CHANNELS 3 Zrotation Xrotation Yrotation
        End Site
        {
          OFFSET 0.00 -6.00 0.00
        }
      }
    }
  }
  JOINT RightThigh
  {
    OFFSET -9.00 0.00 0.00
    CHANNELS 3 Zrotation Xrotation Yrotation
    JOINT RightShin
    {
      OFFSET 0.00 -42.00 0.00
      CHANNELS 3 Zrotation Xrotation Yrotation
      JOINT RightFoot
      {
        OFFSET 0.00 -40.00 0.00
        CHANNELS 3 Zrotation Xrotation Yrotation
        End Site
        {
          OFFSET 0.00 -6.00 0.00
        }
      }
    }
  }
}

MOTION
Frames: 17
Frame Time: 0.033333
0.0000 109.3760 28.0900 0.0000 0.0000 0.0000 0.0000 -6.0000 0.0000 0.0000 2.0000 0.0000 0.0000 0.0000 0.0000 0.0000 0.0000 0.0000 0.0000 65.0000 0.0000 0.0000 -15.0000 0.0000 0.0000 0.0000 0.0000 0.0000 65.0000 0.0000 0.0000 -15.0000 0.0000 0.0000 0.0000 0.0000 0.0000 -70.0000 0.0000 0.0000 85.0000 0.0000 0.0000 -15.0000 0.0000 0.0000 -70.0000 0.0000 0.0000 85.0000 0.0000 0.0000 -15.0000 0.0000
0.0000 109.9409 30.7968 0.0000 0.0000 0.0000 0.0000 -6.0000 0.0000 0.0000 2.0000 0.0000 0.0000 0.0000 0.0000 0.0000 0.0000 0.0000 0.0000 65.0000 0.0000 0.0000 -15.0000 0.0000 0.0000 0.0000 0.0000 0.0000 65.0000 0.0000 0.0000 -15.0000 0.0000 0.0000 0.0000 0.0000 0.0000 -70.0000 0.0000 0.0000 85.0000 0.0000 0.0000 -15.0000 0.0000 0.0000 -70.0000 0.0000 0.0000 85.0000 0.0000 0.0000 -15.0000 0.0000
0.0000 109.9077 33.5035 0.0000 0.0000 0.0000 0.0000 -6.0000 0.0000 0.0000 2.0000 0.0000 0.0000 0.0000 0.0000 0.0000 0.0000 0.0000 0.0000 65.0000 0.0000 0.0000 -15.0000 0.0000 0.0000 0.0000 0.0000 0.0000 65.0000 0.0000 0.0000 -15.0000 0.0000 0.0000 0.0000 0.0000 0.0000 -70.0000 0.0000 0.0000 85.0000 0.0000 0.0000 -15.0000 0.0000 0.0000 -70.0000 0.0000 0.0000 85.0000 0.0000 0.0000 -15.0000 0.0000
0.0000 109.2765 36.2103 0.0000 0.0000 0.0000 0.0000 -6.0000 0.0000 0.0000 2.0000 0.0000 0.0000 0.0000 0.0000 0.0000 0.0000 0.0000 0.0000 65.0000 0.0000 0.0000 -15.0000 0.0000 0.0000 0.0000 0.0000 0.0000 65.0000 0.0000 0.0000 -15.0000 0.0000 0.0000 0.0000 0.0000 0.0000 -70.0000 0.0000 0.0000 85.0000 0.0000 0.0000 -15.0000 0.0000 0.0000 -70.0000 0.0000 0.0000 85.0000 0.0000 0.0000 -15.0000 0.0000
0.0000 108.0471 38.9170 0.0000 0.0000 0.0000 0.0000 -6.0000 0.0000 0.0000 2.0000 0.0000 0.0000 0.0000 0.0000 0.0000 0.0000 0.0000 0.0000 65.0000 0.0000 0.0000 -15.0000 0.0000 0.0000 0.0000 0.0000 0.0000 65.0000 0.0000 0.0000 -15.0000 0.0000 0.0000 0.0000 0.0000 0.0000 -70.0000 0.0000 0.0000 85.0000 0.0000 0.0000 -15.0000 0.0000 0.0000 -70.0000 0.0000 0.0000 85.0000 0.0000 0.0000 -15.0000 0.0000
0.0000 106.2197 41.6238 0.0000 0.0000 0.0000 0.0000 -6.0000 0.0000 0.0000 2.0000 0.0000 0.0000 0.0000 0.0000 0.0000 0.0000 0.0000 0.0000 65.0000 0.0000 0.0000 -15.0000 0.0000 0.0000 0.0000 0.0000 0.0000 65.0000 0.0000 0.0000 -15.0000 0.0000 0.0000 0.0000 0.0000 0.0000 -35.0000 0.0000 0.0000 25.0000 0.0000 0.0000 10.0000 0.0000 0.0000 -35.0000 0.0000 0.0000 25.0000 0.0000 0.0000 10.0000 0.0000
0.0000 103.7942 44.3305 0.0000 0.0000 0.0000 0.0000 -6.0000 0.0000 0.0000 2.0000 0.0000 0.0000 0.0000 0.0000 0.0000 0.0000 0.0000 0.0000 65.0000 0.0000 0.0000 -15.0000 0.0000 0.0000 0.0000 0.0000 0.0000 65.0000 0.0000 0.0000 -15.0000 0.0000 0.0000 0.0000 0.0000 0.0000 -35.0000 0.0000 0.0000 25.0000 0.0000 0.0000 10.0000 0.0000 0.0000 -35.0000 0.0000 0.0000 25.0000 0.0000 0.0000 10.0000 0.0000
0.0000 100.7706 47.0373 0.0000 0.0000 0.0000 0.0000 -6.0000 0.0000 0.0000 2.0000 0.0000 0.0000 0.0000 0.0000 0.0000 0.0000 0.0000 0.0000 65.0000 0.0000 0.0000 -15.0000 0.0000 0.0000 0.0000 0.0000 0.0000 65.0000 0.0000 0.0000 -15.0000 0.0000 0.0000 0.0000 0.0000 0.0000 -35.0000 0.0000 0.0000 25.0000 0.0000 0.0000 10.0000 0.0000 0.0000 -35.0000 0.0000 0.0000 25.0000 0.0000 0.0000 10.0000 0.0000
0.0000 97.1490 49.7440 0.0000 0.0000 0.0000 0.0000 -6.0000 0.0000 0.0000 2.0000 0.0000 0.0000 0.0000 0.0000 0.0000 0.0000 0.0000 0.0000 65.0000 0.0000 0.0000 -15.0000 0.0000 0.0000 0.0000 0.0000 0.0000 65.0000 0.0000 0.0000 -15.0000 0.0000 0.0000 0.0000 0.0000 0.0000 -35.0000 0.0000 0.0000 25.0000 0.0000 0.0000 10.0000 0.0000 0.0000 -35.0000 0.0000 0.0000 25.0000 0.0000 0.0000 10.0000 0.0000
0.0000 92.9292 52.4508 0.0000 0.0000 0.0000 0.0000 -6.0000 0.0000 0.0000 2.0000 0.0000 0.0000 0.0000 0.0000 0.0000 0.0000 0.0000 0.0000 65.0000 0.0000 0.0000 -15.0000 0.0000 0.0000 0.0000 0.0000 0.0000 65.0000 0.0000 0.0000 -15.0000 0.0000 0.0000 0.0000 0.0000 0.0000 -35.0000 0.0000 0.0000 25.0000 0.0000 0.0000 10.0000 0.0000 0.0000 -35.0000 0.0000 0.0000 25.0000 0.0000 0.0000 10.0000 0.0000
0.0000 88.1114 55.1575 0.0000 0.0000 0.0000 0.0000 -6.0000 0.0000 0.0000 2.0000 0.0000 0.0000 0.0000 0.0000 0.0000 0.0000 0.0000 0.0000 65.0000 0.0000 0.0000 -15.0000 0.0000 0.0000 0.0000 0.0000 0.0000 65.0000 0.0000 0.0000 -15.0000 0.0000 0.0000 0.0000 0.0000 0.0000 -35.0000 0.0000 0.0000 25.0000 0.0000 0.0000 10.0000 0.0000 0.0000 -35.0000 0.0000 0.0000 25.0000 0.0000 0.0000 10.0000 0.0000
0.0000 82.6955 57.8642 0.0000 0.0000 0.0000 0.0000 -6.0000 0.0000 0.0000 2.0000 0.0000 0.0000 0.0000 0.0000 0.0000 0.0000 0.0000 0.0000 65.0000 0.0000 0.0000 -15.0000 0.0000 0.0000 0.0000 0.0000 0.0000 65.0000 0.0000 0.0000 -15.0000 0.0000 0.0000 0.0000 0.0000 0.0000 -35.0000 0.0000 0.0000 25.0000 0.0000 0.0000 10.0000 0.0000 0.0000 -35.0000 0.0000 0.0000 25.0000 0.0000 0.0000 10.0000 0.0000
0.0000 77.1562 60.0000 0.0000 0.0000 0.0000 0.0000 0.0000 0.0000 0.0000 2.0000 0.0000 0.0000 0.0000 0.0000 0.0000 0.0000 0.0000 0.0000 -10.0000 0.0000 0.0000 -15.0000 0.0000 0.0000 0.0000 0.0000 0.0000 -10.0000 0.0000 0.0000 -15.0000 0.0000 0.0000 0.0000 0.0000 0.0000 -32.0741 0.0000 0.0000 59.3044 0.0000 0.0000 -27.2302 0.0000 0.0000 -32.0741 0.0000 0.0000 59.3044 0.0000 0.0000 -27.2302 0.0000
0.0000 73.1562 60.0000 0.0000 0.0000 0.0000 0.0000 0.0000 0.0000 0.0000 2.0000 0.0000 0.0000 0.0000 0.0000 0.0000 0.0000 0.0000 0.0000 -10.0000 0.0000 0.0000 -15.0000 0.0000 0.0000 0.0000 0.0000 0.0000 -10.0000 0.0000 0.0000 -15.0000 0.0000 0.0000 0.0000 0.0000 0.0000 -37.3185 0.0000 0.0000 69.7682 0.0000 0.0000 -32.4496 0.0000 0.0000 -37.3185 0.0000 0.0000 69.7682 0.0000 0.0000 -32.4496 0.0000
0.0000 69.1562 60.0000 0.0000 0.0000 0.0000 0.0000 0.0000 0.0000 0.0000 2.0000 0.0000 0.0000 0.0000 0.0000 0.0000 0.0000 0.0000 0.0000 -10.0000 0.0000 0.0000 -15.0000 0.0000 0.0000 0.0000 0.0000 0.0000 -10.0000 0.0000 0.0000 -15.0000 0.0000 0.0000 0.0000 0.0000 0.0000 -41.9756 0.0000 0.0000 79.0072 0.0000 0.0000 -37.0316 0.0000 0.0000 -41.9756 0.0000 0.0000 79.0072 0.0000 0.0000 -37.0316 0.0000
0.0000 66.0000 60.0000 0.0000 0.0000 0.0000 0.0000 0.0000 0.0000 0.0000 2.0000 0.0000 0.0000 0.0000 0.0000 0.0000 0.0000 0.0000 0.0000 -10.0000 0.0000 0.0000 -15.0000 0.0000 0.0000 0.0000 0.0000 0.0000 -10.0000 0.0000 0.0000 -15.0000 0.0000 0.0000 0.0000 0.0000 0.0000 -45.3674 0.0000 0.0000 85.6988 0.0000 0.0000 -40.3314 0.0000 0.0000 -45.3674 0.0000 0.0000 85.6988 0.0000 0.0000 -40.3314 0.0000
0.0000 66.0000 60.0000 0.0000 0.0000 0.0000 0.0000 0.0000 0.0000 0.0000 2.0000 0.0000 0.0000 0.0000 0.0000 0.0000 0.0000 0.0000 0.0000 -10.0000 0.0000 0.0000 -15.0000 0.0000 0.0000 0.0000 0.0000 0.0000 -10.0000 0.0000 0.0000 -15.0000 0.0000 0.0000 0.0000 0.0000 0.0000 -45.3674 0.0000 0.0000 85.6988 0.0000 0.0000 -40.3314 0.0000 0.0000 -45.3674 0.0000 0.0000 85.6988 0.0000 0.0000 -40.3314 0.0000
